# xmcd CD database file
#
# Track frame offsets:
#	150
#	11142
#	21952
#	35187
#	46392
#	54915
#	65322
#	77957
#	88455
#	98502
#	111115
#	122962
#	134595
#	146115
#	157020
#	167532
#
# Disc length: 2388 seconds
#
# Revision: 0
# Processed by: cddbd v1.4PL0 Copyright (c) Steve Scherf et al.
# Submitted via: CDex 1.50
#
DISCID=e4095210
DTITLE=Patsy Cline - A Legendary Performer
DYEAR=1994
DGENRE=Country
TTITLE0=I Cried All The Way To The Altar
TTITLE1=Honky Tonk Merry Go Round
TTITLE2=If I Could See The World
TTITLE3=Cry Not For Me
TTITLE4=Come On In
TTITLE5=Pick Me Up On Your Way Down
TTITLE6=Yes I Understand
TTITLE7=Three Cigarettes In An Ashtray
TTITLE8=Turn The Cards Slowly
TTITLE9=Fingerprints
TTITLE10=If I Could Stay Asleep
TTITLE11=I've Loved And Lost Again
TTITLE12=The Heart You Break May Be Your Own
TTITLE13=Stop, Look And Listen
TTITLE14=I Can See An Angel
TTITLE15=Never No More
EXTD=YEAR: 1994
EXTT0=
EXTT1=
EXTT2=
EXTT3=
EXTT4=
EXTT5=
EXTT6=
EXTT7=
EXTT8=
EXTT9=
EXTT10=
EXTT11=
EXTT12=
EXTT13=
EXTT14=
EXTT15=
PLAYORDER=
